<svg width="136" height="38" viewBox="0 0 136 38" fill="none" xmlns="http://www.w3.org/2000/svg">
<g clip-path="url(#clip0_1143_4317)">
<path d="M130.7 38H5.2C2.6 38 0.5 36.005 0.5 33.535V4.465C0.5 1.995 2.6 0 5.2 0H130.7C133.3 0 135.5 1.995 135.5 4.465V33.44C135.5 36.005 133.3 38 130.7 38Z" fill="black"/>
<path d="M134.5 33.535C134.5 35.53 132.8 37.145 130.7 37.145H5.19999C3.09999 37.145 1.39999 35.53 1.39999 33.535V4.46501C1.39999 2.47001 3.09999 0.855011 5.19999 0.855011H130.7C132.8 0.855011 134.5 2.47001 134.5 4.46501V33.535Z" fill="black"/>
<path d="M30.6 18.81C30.6 15.77 33.2 14.25 33.4 14.155C31.9 12.065 29.5 11.78 28.7 11.78C26.7 11.59 24.8 12.92 23.8 12.92C22.8 12.92 21.2 11.78 19.6 11.875C17.5 11.875 15.5 13.11 14.4 14.915C12.1 18.62 13.8 24.13 16 27.17C17.1 28.69 18.4 30.305 20 30.21C21.6 30.115 22.2 29.26 24.2 29.26C26.1 29.26 26.7 30.21 28.4 30.21C30.1 30.21 31.2 28.69 32.3 27.265C33.6 25.555 34.1 23.94 34.1 23.845C34 23.655 30.7 22.42 30.6 18.81ZM27.4 9.78501C28.3 8.74001 28.9 7.31501 28.7 5.89001C27.4 5.98501 25.9 6.74501 24.9 7.69501C24.1 8.55001 23.4 10.07 23.6 11.4C25.1 11.59 26.5 10.83 27.4 9.78501ZM54.1 29.925H51.8L50.6 26.22H46.3L45.1 29.925H42.9L47.2 17.29H49.8L54.1 29.925ZM50.3 24.7L49.2 21.375C49.1 20.995 48.9 20.235 48.5 19C48.4 19.57 48.2 20.33 47.9 21.375L46.7 24.7H50.3ZM65.2 25.27C65.2 26.79 64.8 28.025 63.9 28.975C63.1 29.735 62.1 30.21 61 30.21C59.7 30.21 58.8 29.735 58.3 28.88V33.725H56.2V23.845C56.2 22.895 56.2 21.85 56.1 20.805H58L58.1 22.23C58.8 21.185 59.9 20.615 61.3 20.615C62.4 20.615 63.4 20.995 64.1 21.85C64.8 22.705 65.2 23.845 65.2 25.27ZM63 25.365C63 24.51 62.8 23.75 62.4 23.18C61.9 22.61 61.3 22.325 60.5 22.325C60 22.325 59.5 22.515 59.1 22.8C58.7 23.18 58.4 23.56 58.3 24.13C58.2 24.415 58.2 24.605 58.2 24.7V26.22C58.2 26.885 58.4 27.455 58.8 27.93C59.2 28.405 59.8 28.595 60.5 28.595C61.3 28.595 61.9 28.31 62.4 27.74C62.8 27.075 63 26.315 63 25.365ZM76.2 25.27C76.2 26.79 75.8 28.025 74.9 28.975C74.1 29.735 73.1 30.21 72 30.21C70.7 30.21 69.8 29.735 69.3 28.88V33.725H67.2V23.845C67.2 22.895 67.2 21.85 67.1 20.805H69L69.1 22.23C69.8 21.185 70.9 20.615 72.3 20.615C73.4 20.615 74.4 20.995 75.1 21.85C75.8 22.705 76.2 23.845 76.2 25.27ZM74 25.365C74 24.51 73.8 23.75 73.4 23.18C72.9 22.61 72.3 22.325 71.5 22.325C71 22.325 70.5 22.515 70.1 22.8C69.7 23.18 69.4 23.56 69.3 24.13C69.2 24.415 69.2 24.605 69.2 24.7V26.22C69.2 26.885 69.4 27.455 69.8 27.93C70.2 28.405 70.8 28.595 71.5 28.595C72.3 28.595 72.9 28.31 73.4 27.74C73.8 27.075 74 26.315 74 25.365ZM88.5 26.41C88.5 27.455 88.1 28.405 87.3 29.07C86.4 29.83 85.2 30.21 83.7 30.21C82.3 30.21 81.1 29.925 80.3 29.45L80.8 27.74C81.7 28.31 82.8 28.595 83.9 28.595C84.7 28.595 85.3 28.405 85.8 28.12C86.2 27.74 86.5 27.36 86.5 26.695C86.5 26.22 86.3 25.745 85.9 25.365C85.5 24.985 84.9 24.7 84.1 24.415C81.8 23.56 80.6 22.42 80.6 20.805C80.6 19.76 81 18.905 81.8 18.24C82.6 17.575 83.7 17.29 85.1 17.29C86.3 17.29 87.3 17.48 88.1 17.86L87.5 19.38C86.7 19 85.9 18.81 85 18.81C84.2 18.81 83.7 19 83.2 19.38C82.8 19.665 82.7 20.045 82.7 20.52C82.7 20.995 82.9 21.47 83.3 21.755C83.7 22.04 84.3 22.42 85.2 22.705C86.3 23.18 87.2 23.655 87.7 24.225C88.3 24.795 88.5 25.555 88.5 26.41ZM95.6 22.325H93.3V26.79C93.3 27.93 93.7 28.5 94.5 28.5C94.9 28.5 95.2 28.5 95.4 28.405L95.5 29.925C95.1 30.115 94.5 30.115 93.8 30.115C93 30.115 92.3 29.83 91.8 29.355C91.3 28.88 91.1 28.025 91.1 26.885V22.325H89.7V20.805H91.1V19.095L93.2 18.525V20.805H95.5L95.6 22.325ZM106.2 25.27C106.2 26.695 105.8 27.835 104.9 28.69C104 29.64 102.8 30.115 101.4 30.115C100 30.115 98.9 29.64 98 28.785C97.1 27.93 96.7 26.79 96.7 25.46C96.7 24.035 97.1 22.895 98 21.945C98.9 21.09 100 20.615 101.5 20.615C102.9 20.615 104 21.09 104.9 21.945C105.8 22.8 106.2 23.94 106.2 25.27ZM104 25.365C104 24.51 103.8 23.845 103.4 23.18C103 22.42 102.3 22.135 101.5 22.135C100.6 22.135 100 22.515 99.5 23.18C99.1 23.75 98.9 24.51 98.9 25.365C98.9 26.22 99.1 26.885 99.5 27.55C100 28.31 100.6 28.595 101.4 28.595C102.2 28.595 102.9 28.215 103.3 27.455C103.8 26.885 104 26.22 104 25.365ZM113.1 22.61C112.9 22.61 112.7 22.515 112.4 22.515C111.6 22.515 111.1 22.8 110.7 23.37C110.3 23.845 110.2 24.415 110.2 25.175V29.925H108.1V23.655C108.1 22.61 108.1 21.66 108 20.805H109.9L110 22.515H110.1C110.3 21.945 110.7 21.47 111.2 21.09C111.7 20.805 112.2 20.615 112.7 20.615H113.2L113.1 22.61ZM122.7 24.985C122.7 25.365 122.7 25.65 122.6 25.935H116.2C116.2 26.79 116.5 27.55 117.1 28.025C117.6 28.405 118.3 28.69 119.2 28.69C120.1 28.69 121 28.5 121.8 28.215L122.1 29.64C121.2 30.02 120.1 30.21 118.9 30.21C117.4 30.21 116.2 29.83 115.4 28.975C114.6 28.12 114.1 27.075 114.1 25.65C114.1 24.32 114.5 23.085 115.3 22.23C116.1 21.28 117.2 20.805 118.7 20.805C120.1 20.805 121.1 21.28 121.8 22.23C122.4 22.8 122.7 23.845 122.7 24.985ZM120.6 24.415C120.6 23.845 120.5 23.275 120.2 22.895C119.8 22.325 119.3 22.04 118.5 22.04C117.8 22.04 117.2 22.325 116.8 22.895C116.4 23.37 116.2 23.845 116.2 24.51L120.6 24.415ZM47.347 8.05201C47.347 7.70001 47.218 7.42001 46.96 7.21402C46.705 7.00401 46.346 6.90001 45.881 6.90001C45.493 6.90001 45.166 7.00801 44.902 7.22301C44.641 7.43601 44.51 7.70002 44.51 8.01502H43.636C43.636 7.66302 43.732 7.34801 43.923 7.06801C44.1278 6.78069 44.4081 6.55571 44.733 6.41802C45.0939 6.25657 45.4856 6.17537 45.881 6.18001C46.621 6.18001 47.197 6.34702 47.607 6.68102C48.017 7.01201 48.222 7.47401 48.222 8.06601C48.222 8.37201 48.128 8.65101 47.94 8.90301C47.7345 9.16796 47.4627 9.37391 47.152 9.50001C47.932 9.76101 48.322 10.279 48.322 11.053C48.322 11.648 48.1 12.12 47.657 12.469C47.214 12.819 46.622 12.993 45.881 12.993C45.441 12.993 45.041 12.915 44.679 12.76C44.3426 12.6198 44.0522 12.388 43.841 12.091C43.641 11.803 43.541 11.46 43.541 11.061H44.415C44.415 11.411 44.553 11.703 44.829 11.936C45.105 12.166 45.456 12.282 45.881 12.282C46.358 12.282 46.737 12.172 47.02 11.95C47.1567 11.8486 47.2669 11.7158 47.3414 11.5628C47.4159 11.4098 47.4525 11.2411 47.448 11.071C47.448 10.294 46.967 9.89802 46.004 9.88302H45.184V9.16301H46C46.443 9.15301 46.778 9.05301 47.006 8.86301C47.234 8.67101 47.347 8.40101 47.347 8.05201ZM52.393 12.902C52.344 12.805 52.305 12.632 52.275 12.382C51.883 12.789 51.415 12.992 50.872 12.992C50.386 12.992 49.987 12.856 49.674 12.582C49.5244 12.4526 49.4052 12.2917 49.325 12.1109C49.2448 11.9301 49.2055 11.7338 49.21 11.536C49.21 11.022 49.404 10.625 49.793 10.342C50.184 10.057 50.733 9.91401 51.441 9.91401H52.261V9.52702C52.261 9.23302 52.173 8.99902 51.997 8.82601C51.821 8.65001 51.561 8.56202 51.218 8.56202C50.918 8.56202 50.666 8.63801 50.462 8.79001C50.259 8.94101 50.157 9.12502 50.157 9.34001H49.31C49.31 9.09502 49.397 8.85801 49.57 8.63001C49.746 8.40001 49.983 8.21701 50.28 8.08401C50.58 7.95001 50.91 7.88401 51.268 7.88401C51.836 7.88401 52.281 8.02601 52.602 8.31101C52.924 8.59401 53.092 8.98401 53.103 9.48101V11.749C53.103 12.202 53.161 12.562 53.276 12.829V12.902H52.393ZM50.995 12.259C51.259 12.259 51.51 12.191 51.746 12.055C51.968 11.934 52.1477 11.748 52.261 11.522V10.51H51.601C50.569 10.51 50.052 10.812 50.052 11.416C50.052 11.68 50.14 11.886 50.316 12.036C50.493 12.184 50.719 12.259 50.995 12.259ZM57.607 8.67101H55.335V12.901H54.488V7.97601H57.607V8.67201V8.67101ZM62.502 10.493C62.502 11.243 62.331 11.847 61.988 12.305C61.645 12.764 61.18 12.993 60.594 12.993C59.996 12.993 59.526 12.803 59.183 12.423V14.796H58.34V7.97501H59.11L59.15 8.52101C59.494 8.09601 59.97 7.88301 60.58 7.88301C61.173 7.88301 61.64 8.10702 61.983 8.55302C62.329 8.99902 62.503 9.62001 62.503 10.415L62.502 10.493ZM61.66 10.397C61.66 9.84202 61.541 9.40302 61.305 9.08102C61.068 8.75902 60.743 8.59801 60.33 8.59801C59.82 8.59801 59.438 8.82502 59.183 9.27702V11.631C59.435 12.081 59.82 12.305 60.339 12.305C60.743 12.305 61.063 12.145 61.3 11.827C61.54 11.505 61.66 11.028 61.66 10.397ZM65.134 11.667L66.282 7.97501H67.183L65.203 13.662C64.896 14.482 64.409 14.892 63.741 14.892L63.581 14.878L63.267 14.818V14.136L63.495 14.154C63.78 14.154 64.002 14.096 64.16 13.981C64.32 13.866 64.453 13.655 64.556 13.348L64.743 12.847L62.985 7.97501H63.905L65.135 11.668L65.134 11.667ZM70.649 9.32201C70.6528 9.21639 70.6307 9.11144 70.5847 9.01628C70.5387 8.92113 70.4701 8.83865 70.385 8.77601C70.209 8.63901 69.967 8.57101 69.661 8.57101C69.363 8.57101 69.114 8.64802 68.914 8.80302C68.716 8.95802 68.618 9.14002 68.618 9.35002H67.78C67.78 8.92202 67.96 8.57102 68.317 8.29802C68.676 8.02502 69.123 7.88801 69.661 7.88801C70.237 7.88801 70.687 8.01201 71.009 8.26101C71.33 8.50701 71.491 8.85901 71.491 9.31801C71.491 9.53901 71.424 9.74302 71.291 9.92802C71.1441 10.1238 70.9472 10.2765 70.721 10.37C71.295 10.564 71.582 10.947 71.582 11.517C71.582 11.97 71.408 12.327 71.059 12.592C70.709 12.856 70.243 12.988 69.661 12.988C69.093 12.988 68.624 12.85 68.254 12.574C67.886 12.294 67.703 11.918 67.703 11.444H68.54C68.54 11.684 68.647 11.891 68.86 12.064C69.075 12.234 69.342 12.319 69.66 12.319C69.982 12.319 70.242 12.244 70.44 12.096C70.5328 12.031 70.6083 11.9443 70.6597 11.8433C70.7111 11.7423 70.737 11.6303 70.735 11.517C70.735 11.241 70.652 11.044 70.485 10.925C70.321 10.804 70.065 10.743 69.715 10.743H68.873V10.033H69.788C70.362 10.018 70.648 9.78101 70.648 9.32301L70.649 9.32201ZM75.863 7.97501H76.705V12.902H75.863V9.30901L73.591 12.902H72.748V7.97501H73.591V11.572L75.863 7.97501ZM81.719 8.65801H80.066V12.902H79.223V8.65801H77.603V7.97501H81.719V8.65801ZM84.219 12.993C83.551 12.993 83.008 12.774 82.589 12.337C82.169 11.897 81.96 11.309 81.96 10.575V10.42C81.96 9.93102 82.053 9.49501 82.238 9.11301C82.426 8.72701 82.688 8.42702 83.021 8.21102C83.345 7.99624 83.7253 7.88212 84.114 7.88301C84.754 7.88301 85.253 8.09401 85.608 8.51601C85.963 8.93801 86.14 9.54202 86.14 10.329V10.679H82.803C82.815 11.165 82.956 11.559 83.226 11.859C83.499 12.156 83.846 12.305 84.264 12.305C84.562 12.305 84.814 12.245 85.02 12.123C85.2303 11.9988 85.4144 11.8347 85.562 11.64L86.077 12.041C85.664 12.675 85.045 12.993 84.219 12.993ZM84.114 8.57601C83.774 8.57601 83.489 8.70002 83.258 8.94902C83.028 9.19502 82.885 9.54102 82.83 9.98702H85.298V9.92302C85.274 9.49502 85.158 9.16501 84.952 8.93101C84.746 8.69401 84.466 8.57601 84.114 8.57601ZM89.51 12.902V7.97501H91.432C92.088 7.97501 92.59 8.09001 92.939 8.32101C93.291 8.54801 93.468 8.88401 93.468 9.32701C93.468 9.55501 93.399 9.76101 93.262 9.94701C93.126 10.128 92.924 10.268 92.657 10.365C92.954 10.435 93.193 10.572 93.372 10.775C93.554 10.978 93.645 11.221 93.645 11.504C93.645 11.956 93.478 12.302 93.145 12.542C92.813 12.782 92.345 12.902 91.737 12.902H89.51ZM90.353 10.739V12.223H91.746C92.098 12.223 92.361 12.158 92.534 12.027C92.6199 11.9642 92.689 11.8811 92.735 11.7851C92.7811 11.6892 92.8027 11.5833 92.798 11.477C92.798 10.985 92.437 10.739 91.714 10.739H90.353ZM90.353 10.065H91.441C92.231 10.065 92.625 9.83401 92.625 9.37201C92.625 8.91101 92.252 8.67201 91.505 8.65801H90.353V10.065Z" fill="white"/>
</g>
<defs>
<clipPath id="clip0_1143_4317">
<rect width="135" height="38" fill="white" transform="translate(0.5)"/>
</clipPath>
</defs>
</svg>
