<svg width="136" height="38" viewBox="0 0 136 38" fill="none" xmlns="http://www.w3.org/2000/svg">
<g clip-path="url(#clip0_1143_4306)">
<path d="M130.5 38H5.5C2.7 38 0.5 35.815 0.5 33.25V4.75C0.5 2.09 2.8 0 5.5 0H130.5C133.3 0 135.5 2.185 135.5 4.75V33.25C135.5 35.815 133.3 38 130.5 38Z" fill="black"/>
<path d="M68.6 20.71C66.2 20.71 64.3 22.42 64.3 24.794C64.3 27.074 66.2 28.879 68.6 28.879C71 28.879 72.9 27.169 72.9 24.794C72.9 22.324 71 20.71 68.6 20.71ZM68.6 27.17C67.3 27.17 66.2 26.124 66.2 24.7C66.2 23.274 67.3 22.23 68.6 22.23C69.9 22.23 71 23.18 71 24.7C71 26.124 69.9 27.17 68.6 27.17ZM59.3 20.71C56.9 20.71 55 22.42 55 24.794C55 27.074 56.9 28.879 59.3 28.879C61.7 28.879 63.6 27.169 63.6 24.794C63.6 22.324 61.7 20.71 59.3 20.71ZM59.3 27.17C58 27.17 56.9 26.124 56.9 24.7C56.9 23.274 58 22.23 59.3 22.23C60.6 22.23 61.7 23.18 61.7 24.7C61.7 26.124 60.6 27.17 59.3 27.17ZM48.2 21.944V23.654H52.5C52.4 24.604 52 25.364 51.5 25.839C50.9 26.409 49.9 27.074 48.2 27.074C45.5 27.074 43.5 25.079 43.5 22.514C43.5 19.949 45.6 17.954 48.2 17.954C49.6 17.954 50.7 18.524 51.5 19.189L52.8 17.954C51.7 17.004 50.3 16.244 48.3 16.244C44.7 16.244 41.6 19.094 41.6 22.514C41.6 25.934 44.7 28.784 48.3 28.784C50.3 28.784 51.7 28.214 52.9 26.979C54.1 25.839 54.5 24.224 54.5 22.989C54.5 22.609 54.5 22.229 54.4 21.944H48.2ZM93.6 23.274C93.2 22.324 92.2 20.709 90 20.709C87.8 20.709 86 22.324 86 24.794C86 27.074 87.8 28.879 90.2 28.879C92.1 28.879 93.3 27.739 93.7 27.074L92.3 26.124C91.8 26.789 91.2 27.264 90.2 27.264C89.2 27.264 88.6 26.884 88.1 26.029L93.8 23.749L93.6 23.274ZM87.8 24.604C87.8 23.084 89.1 22.229 90 22.229C90.7 22.229 91.4 22.609 91.6 23.084L87.8 24.604ZM83.1 28.5H85V16.624H83.1V28.5ZM80.1 21.565C79.6 21.09 78.8 20.615 77.8 20.615C75.7 20.615 73.7 22.42 73.7 24.7C73.7 26.98 75.6 28.69 77.8 28.69C78.8 28.69 79.6 28.215 80 27.74H80.1V28.31C80.1 29.83 79.2 30.685 77.8 30.685C76.7 30.685 75.9 29.925 75.7 29.26L74.1 29.925C74.6 30.97 75.8 32.3 77.9 32.3C80.1 32.3 81.9 31.065 81.9 28.12V20.9H80.1V21.565ZM77.9 27.17C76.6 27.17 75.5 26.125 75.5 24.7C75.5 23.275 76.6 22.23 77.9 22.23C79.2 22.23 80.2 23.275 80.2 24.7C80.2 26.125 79.2 27.17 77.9 27.17ZM102.3 16.625H97.8V28.5H99.7V24.035H102.3C104.4 24.035 106.4 22.61 106.4 20.33C106.4 18.05 104.4 16.625 102.3 16.625ZM102.4 22.325H99.7V18.24H102.4C103.8 18.24 104.6 19.38 104.6 20.235C104.5 21.28 103.7 22.325 102.4 22.325ZM113.9 20.615C112.5 20.615 111.1 21.185 110.6 22.42L112.3 23.085C112.7 22.42 113.3 22.23 114 22.23C115 22.23 115.9 22.8 116 23.75V23.845C115.7 23.655 114.9 23.37 114.1 23.37C112.3 23.37 110.5 24.32 110.5 26.03C110.5 27.645 112 28.69 113.6 28.69C114.9 28.69 115.5 28.12 116 27.55H116.1V28.5H117.9V23.94C117.7 21.85 116 20.615 113.9 20.615ZM113.7 27.17C113.1 27.17 112.2 26.885 112.2 26.125C112.2 25.175 113.3 24.89 114.2 24.89C115 24.89 115.4 25.08 115.9 25.27C115.7 26.41 114.7 27.17 113.7 27.17ZM124.2 20.9L122.1 26.03H122L119.8 20.9H117.8L121.1 28.12L119.2 32.11H121.1L126.2 20.9H124.2ZM107.4 28.5H109.3V16.624H107.4V28.5Z" fill="white"/>
<path d="M10.9 7.12499C10.6 7.40999 10.4 7.88499 10.4 8.45499V29.45C10.4 30.02 10.6 30.494 10.9 30.78L11 30.875L23.4 19.095V18.904L10.9 7.12499Z" fill="url(#paint0_linear_1143_4306)"/>
<path d="M27.5 23.086L23.4 19.191V18.906L27.5 15.01L27.6 15.105L32.5 17.765C33.9 18.525 33.9 19.76 32.5 20.52L27.5 23.085V23.086Z" fill="url(#paint1_linear_1143_4306)"/>
<path d="M27.6 22.99L23.4 19L10.9 30.875C11.4 31.349 12.1 31.349 13 30.97L27.6 22.99Z" fill="url(#paint2_linear_1143_4306)"/>
<path d="M27.6 15.01L13 7.125C12.1 6.65 11.4 6.745 10.9 7.22L23.4 19L27.6 15.01Z" fill="url(#paint3_linear_1143_4306)"/>
<path opacity="0.2" d="M27.5 22.895L13 30.685C12.2 31.16 11.5 31.065 11 30.685L10.9 30.78L11 30.875C11.5 31.255 12.2 31.35 13 30.875L27.5 22.895Z" fill="white"/>
<path opacity="0.12" d="M10.9 30.685C10.6 30.4 10.5 29.925 10.5 29.355V29.45C10.5 30.02 10.7 30.495 11 30.78V30.685H10.9ZM32.5 20.235L27.5 22.895L27.6 22.99L32.5 20.33C33.2 19.95 33.5 19.475 33.5 19C33.5 19.474 33.1 19.855 32.5 20.235Z" fill="white"/>
<path opacity="0.25" d="M13 7.22001L32.5 17.765C33.1 18.145 33.5 18.525 33.5 19C33.5 18.525 33.2 18.05 32.5 17.67L13 7.12501C11.6 6.36501 10.5 7.03001 10.5 8.55001V8.64501C10.5 7.12501 11.6 6.46001 13 7.22001Z" fill="#23272E"/>
<path d="M42.6 13.585H41.9V11.685H42.5C43 11.305 43.3 10.545 43.3 9.49999V6.64999H47.3V11.685H48V13.585H47.3V12.35H42.7V13.585H42.6ZM44 9.49999C44 10.355 43.8 11.115 43.4 11.685H46.4V7.40999H43.9V9.49999H44ZM53.9 11.59C53.3 12.16 52.6 12.445 51.7 12.445C50.8 12.445 50.1 12.16 49.5 11.59C48.9 11.02 48.6 10.355 48.6 9.49999C48.6 8.64499 48.9 7.97999 49.5 7.40999C50.1 6.83999 50.8 6.55499 51.7 6.55499C52.6 6.55499 53.3 6.83999 53.9 7.40999C54.5 7.97999 54.8 8.64499 54.8 9.49999C54.8 10.355 54.5 11.02 53.9 11.59ZM50.1 11.115C50.5 11.495 51.1 11.78 51.7 11.78C52.3 11.78 52.9 11.59 53.3 11.115C53.7 10.735 54 10.165 54 9.49999C54 8.83499 53.8 8.26499 53.3 7.88499C52.9 7.50499 52.3 7.21999 51.7 7.21999C51.1 7.21999 50.5 7.40999 50.1 7.88499C49.7 8.26499 49.4 8.83499 49.4 9.49999C49.4 10.165 49.6 10.735 50.1 11.115ZM58.7 12.445C57.8 12.445 57.1 12.16 56.5 11.59C55.9 11.02 55.6 10.355 55.6 9.49999C55.6 8.64499 55.9 7.97999 56.5 7.40999C57.1 6.83999 57.8 6.55499 58.7 6.55499C59.6 6.55499 60.3 6.83999 60.9 7.50499L60.4 7.97999C60 7.50499 59.4 7.21999 58.7 7.21999C58 7.21999 57.5 7.40999 57 7.88499C56.5 8.26499 56.3 8.83499 56.3 9.49999C56.3 10.165 56.5 10.735 57 11.115C57.4 11.495 58 11.78 58.7 11.78C59.4 11.78 60 11.495 60.5 10.925L61 11.4C60.7 11.685 60.4 11.97 60 12.16C59.6 12.35 59.2 12.445 58.7 12.445ZM64.201 12.35H63.401V7.31499H61.701V6.64999H65.801V7.31499H64.101V12.35H64.201ZM71.1 6.64999L68.8 11.495C68.5 12.16 68 12.54 67.4 12.54C67.2 12.54 67 12.54 66.8 12.445L67 11.78C67.1 11.875 67.3 11.875 67.4 11.875C67.6 11.875 67.7 11.875 67.8 11.78C67.9 11.685 68 11.59 68.1 11.4L68.3 10.925L66.3 6.74499H67.2L68.7 9.97499L70.1 6.74499H71.1V6.64999ZM72 12.35V6.64999H76.3V12.35H75.5V7.31499H72.7V12.35H72ZM77.701 12.35V6.64999H78.501V9.11999H81.501V6.64999H82.301V12.35H81.501V9.78499H78.501V12.35H77.701ZM88.6 11.59C88 12.16 87.3 12.445 86.4 12.445C85.5 12.445 84.8 12.16 84.2 11.59C83.6 11.02 83.3 10.355 83.3 9.49999C83.3 8.64499 83.6 7.97999 84.2 7.40999C84.8 6.83999 85.5 6.55499 86.4 6.55499C87.3 6.55499 88 6.83999 88.6 7.40999C89.2 7.97999 89.5 8.64499 89.5 9.49999C89.4 10.355 89.1 11.02 88.6 11.59ZM84.7 11.115C85.1 11.495 85.7 11.78 86.3 11.78C86.9 11.78 87.5 11.59 87.9 11.115C88.3 10.735 88.6 10.165 88.6 9.49999C88.6 8.83499 88.4 8.26499 87.9 7.88499C87.5 7.50499 86.9 7.21999 86.3 7.21999C85.7 7.21999 85.1 7.40999 84.7 7.88499C84.3 8.26499 84 8.83499 84 9.49999C84 10.165 84.3 10.735 84.7 11.115ZM92.6 12.35V6.64999H94.8C95.3 6.64999 95.7 6.83999 96 7.12499C96.3 7.40999 96.5 7.78999 96.5 8.26499C96.5 8.54999 96.4 8.73999 96.3 9.02499C96.2 9.21499 96 9.40499 95.7 9.49999C96 9.59499 96.2 9.78499 96.4 9.97499C96.6 10.165 96.7 10.45 96.7 10.83C96.7 11.305 96.5 11.685 96.2 11.97C95.8 12.255 95.4 12.445 94.9 12.445H92.6V12.35ZM93.4 9.11999H94.8C95.1 9.11999 95.3 9.02499 95.5 8.83499C95.7 8.64499 95.8 8.45499 95.8 8.26499C95.8 8.07499 95.7 7.88499 95.5 7.69499C95.4098 7.60114 95.3008 7.52727 95.1803 7.47818C95.0597 7.42908 94.9301 7.40585 94.8 7.40999H93.4V9.11999ZM93.4 11.685H95C95.3 11.685 95.5 11.59 95.7 11.4C95.9 11.21 96 11.02 96 10.735C95.9873 10.4835 95.8802 10.246 95.7 10.07C95.6098 9.97614 95.5008 9.90227 95.3803 9.85318C95.2597 9.80408 95.1301 9.78085 95 9.78499H93.5V11.685H93.4Z" fill="white"/>
</g>
<defs>
<linearGradient id="paint0_linear_1143_4306" x1="22.3" y1="8.27399" x2="6.378" y2="25.034" gradientUnits="userSpaceOnUse">
<stop stop-color="#00A0FF"/>
<stop offset="0.007" stop-color="#00A1FF"/>
<stop offset="0.26" stop-color="#00BEFF"/>
<stop offset="0.512" stop-color="#00D2FF"/>
<stop offset="0.76" stop-color="#00DFFF"/>
<stop offset="1" stop-color="#00E3FF"/>
</linearGradient>
<linearGradient id="paint1_linear_1143_4306" x1="34.335" y1="19.002" x2="10.138" y2="19.002" gradientUnits="userSpaceOnUse">
<stop stop-color="#FFE000"/>
<stop offset="0.409" stop-color="#FFBD00"/>
<stop offset="0.775" stop-color="#FFA500"/>
<stop offset="1" stop-color="#FF9C00"/>
</linearGradient>
<linearGradient id="paint2_linear_1143_4306" x1="25.327" y1="21.181" x2="3.735" y2="43.909" gradientUnits="userSpaceOnUse">
<stop stop-color="#FF3A44"/>
<stop offset="1" stop-color="#C31162"/>
</linearGradient>
<linearGradient id="paint3_linear_1143_4306" x1="7.798" y1="0.167003" x2="17.439" y2="10.317" gradientUnits="userSpaceOnUse">
<stop stop-color="#32A071"/>
<stop offset="0.069" stop-color="#2DA771"/>
<stop offset="0.476" stop-color="#15CF74"/>
<stop offset="0.801" stop-color="#06E775"/>
<stop offset="1" stop-color="#00F076"/>
</linearGradient>
<clipPath id="clip0_1143_4306">
<rect width="135" height="38" fill="white" transform="translate(0.5)"/>
</clipPath>
</defs>
</svg>
