<svg width="40" height="40" viewBox="0 0 40 40" fill="none" xmlns="http://www.w3.org/2000/svg">
<rect x="0.400009" y="17.0999" width="32" height="24" rx="3.2" transform="rotate(-28.1559 0.400009 17.0999)" fill="#FDF4DF"/>
<path d="M19.9231 9.76923V13.5385M19.9231 9.76923C19.9231 9.02375 20.1441 8.29501 20.5583 7.67516C20.9725 7.05531 21.5611 6.5722 22.2499 6.28692C22.9386 6.00163 23.6965 5.92699 24.4276 6.07243C25.1588 6.21786 25.8304 6.57685 26.3576 7.10398C26.8847 7.63112 27.2437 8.30273 27.3891 9.03389C27.5345 9.76505 27.4599 10.5229 27.1746 11.2117C26.8893 11.9004 26.4062 12.4891 25.7864 12.9032C25.1665 13.3174 24.4378 13.5385 23.6923 13.5385H19.9231M19.9231 9.76923C19.9231 9.02375 19.702 8.29501 19.2878 7.67516C18.8737 7.05531 18.285 6.5722 17.5963 6.28692C16.9075 6.00163 16.1497 5.92699 15.4185 6.07243C14.6873 6.21786 14.0157 6.57685 13.4886 7.10398C12.9615 7.63112 12.6025 8.30273 12.457 9.03389C12.3116 9.76505 12.3862 10.5229 12.6715 11.2117C12.9568 11.9004 13.4399 12.4891 14.0598 12.9032C14.6796 13.3174 15.4084 13.5385 16.1538 13.5385H19.9231" stroke="#F5C861" stroke-width="2" stroke-miterlimit="10" stroke-linecap="round"/>
<path d="M30.6923 13.5385H9.15385C7.96431 13.5385 7 14.5028 7 15.6923V18.9231C7 20.1126 7.96431 21.0769 9.15385 21.0769H30.6923C31.8818 21.0769 32.8462 20.1126 32.8462 18.9231V15.6923C32.8462 14.5028 31.8818 13.5385 30.6923 13.5385Z" stroke="#F5C861" stroke-width="2" stroke-linecap="round" stroke-linejoin="round"/>
<path d="M30.6923 21.0769V30.7692C30.6923 31.6261 30.3519 32.4478 29.746 33.0537C29.1401 33.6596 28.3184 34 27.4615 34H12.3846C11.5278 34 10.706 33.6596 10.1001 33.0537C9.49422 32.4478 9.15384 31.6261 9.15384 30.7692V21.0769M19.9231 13.5385V34" stroke="#F5C861" stroke-width="2" stroke-linecap="round" stroke-linejoin="round"/>
</svg>
